<svg xmlns="http://www.w3.org/2000/svg" viewBox="0 0 1080 1080"><defs><style>.cls-1{fill:#ffd524;}.cls-2{fill:#1fb2e5;}.cls-3{fill:#fff;}</style></defs><g id="main"><g id="left-brac"><path class="cls-1" d="M226.61,340.73a12.87,12.87,0,0,1-4.78,16c-12.33,8.1-31.28,28.5-26.31,76.13,7,67.45,54.35,96.65-1.55,195.74a12.87,12.87,0,0,0,1.25,14.42c10.84,13.41,32.39,51.37,31,140.21-1.67,109.4,72.49,103.51,130.63,98a12.78,12.78,0,0,1,14,12.73v.94a12.78,12.78,0,0,1-11.44,12.71c-26.21,2.77-91,6.16-125-22.24-41-34.16-13.4-191.75-72-234.21a12.7,12.7,0,0,1-3-17.41c14.9-22,43-72.69,22.51-117.15C157.37,463.36,164.67,374.08,206.1,336a12.78,12.78,0,0,1,20.25,4.21Z"/></g><g id="right-brac"><path class="cls-1" d="M842.22,310.82a9.39,9.39,0,0,0-.44,15.59c18.51,13.28,46.66,51.18,21.68,155-25.31,105.11,1.79,141.06,19.09,153a9.38,9.38,0,0,1,1.6,13.87c-10.69,12.41-25.86,42.85-27,116.06-1.68,105.85-60.36,124.39-113.63,141.29a9.39,9.39,0,0,0-4.91,14.25h0a9.37,9.37,0,0,0,8.58,4.07C768,922,841.87,911.29,874.3,851.06c37-68.71-26.46-116.82,46.46-210.44a9.43,9.43,0,0,0-1.33-13c-14.45-12.29-44.14-44.15-29.76-89.46C907.9,480.7,920.39,341,854.31,308.54a9.46,9.46,0,0,0-9.23.47Z"/></g><g id="face"><path class="cls-2" d="M826.86,390.66h0a25.8,25.8,0,0,0-27.22-24.4L253.8,397.13a25.8,25.8,0,0,0-24.15,28.94l.83,6.68a25.79,25.79,0,0,0,27.37,22.56l3.47-.24s21,127.25,28.8,149.55,35.55,57.24,95.21,53S516.68,639,536,581.12c0,0,45.19,53.62,94.6,60.85s119.3,6,159.07-76.52c0,0,10.25-13.86,4.82-141.6l-.12-5.5-15.21,1,23.74-1.64A25.79,25.79,0,0,0,826.86,390.66ZM498,574.49c-33.75,40.37-66.89,41-101.84,43.38S329.89,592,317.84,541.35s-12.77-84.2-2.47-90L516,437.52S531.75,534.12,498,574.49Zm244.63,0c-28.32,31.33-50,46.39-83.15,41.57s-80.74-32.53-94.6-65.67S552.22,435,552.22,435l-8.86.61L743.9,421.82c9.08.69,11.77,10.85,11.77,10.85C759,463.86,765.63,549.06,742.64,574.49Z"/><path class="cls-3" d="M439.56,864.17s20.33-5.88,20.79,11.29-4.52,28.93-4.52,28.93,62.36-2.26,87.67-5.43,67.33-12.2,87.67-2.71c0,0-13.56-30.73-1.81-37.06s24.41-1.35,23,16.73,3.62,38-25.76,43.38-48.81-1.81-110.72,7.68-73.21,5.88-78.63-8.58S421.48,870,439.56,864.17Z"/><path class="cls-2" d="M456.74,689c11.08,14,47.89,58.87,80.1,79.41a13.35,13.35,0,0,0,18.84-4.72c13.88-24.78,45.54-82.84,49-102.45,4.4-25.15-20.36-14.52-39.62,29.19-.1.21-.19.43-.27.65-1.56,4-17.38,44.74-23.68,47.89-6.63,3.31-40.07-43.09-50.62-53.93s-22.89-22.3-31.93-14.47l-.27.24A13.3,13.3,0,0,0,456.74,689Z"/><path class="cls-3" d="M676.26,552.85c-32.54-19.44-42.48-6.33-65.07-22.37C601,523.22,603,516,609.4,511c3.68-4.38,30.39-36,55.16-57.79,26.66-23.5,39.77-1.8,28.47,14.46-7.59,10.94-37,28-55.52,38a8.92,8.92,0,0,1,1.24.61c13.11,7.68,30.73,17.62,45.19,23.05s37.51,25.3,37.51,25.3C731.4,567.31,708.8,572.28,676.26,552.85Z"/><path class="cls-3" d="M448.19,550.18c-16.08,6.19-46.46,51.13-55.43,36a9.56,9.56,0,0,1,.27-9.83c6.9-11.22,28.82-44.79,51.6-57.92-19.54-6.85-48.75-19.08-61.22-24.51-17.62-7.68-15.37-26.21,4.52-29.37s86.77,52,86.77,52a7.32,7.32,0,0,1-.5,1C478.08,526.28,461,545.26,448.19,550.18Z"/></g><g id="hairs"><path class="cls-3" d="M261.32,314.79S340.14,191.86,360,192.47s20.49,10.84-5.42,47-57.85,75.92-71.1,101.83S244,340.92,261.32,314.79Z"/><path class="cls-3" d="M359.42,303.94s60.86-108.46,80.74-115.09,37.36,3,20.49,24.1-54.23,72.31-67.49,96.41S346.76,343.71,359.42,303.94Z"/><path class="cls-3" d="M467.44,261.16s77-89.78,116.13-107.86,12.65,11.44-13.86,39.16-84.36,89.19-94,109.67S412.78,340.7,467.44,261.16Z"/><path class="cls-3" d="M574.53,251.52S637.8,169,661.3,162.94s35.55-9,16.27,11.45-85,98.22-103,120.51S515.18,320,574.53,251.52Z"/><path class="cls-3" d="M633.58,290.68s24.1-44.59,61.46-71.1,35-45.79,42.18-49.41,30.73,3.62,8.44,33.14S669.13,281,660.09,300.93,624.17,305.9,633.58,290.68Z"/><path class="cls-3" d="M768.55,237.06c1.3-1.75,42.78-63.87,59.66-56s10.84,28.32-25.31,63.87S751.08,299,744.45,309s-41.58-.26-14.46-31S757.19,252.33,768.55,237.06Z"/></g></g></svg>